<svg id="Layer_1" data-name="Layer 1" xmlns="http://www.w3.org/2000/svg" viewBox="0 0 1920 1080"><defs><style>.cls-1,.cls-2{fill:none;stroke:#ff4c29;stroke-miterlimit:20;stroke-width:5px;}.cls-2{stroke-dasharray:80.33 80.33;}</style></defs><path class="cls-1" d="M218,720.22q18.74-6.9,38-12.6"/><path class="cls-2" d="M334.21,689.6a671.57,671.57,0,0,1,80.47-8.46c78-3,153,8,232,25,1,0,3,2,4,2,146,33,274,87,414,131,69,21,136,38,207,46h10c40,5,78,3,118-2,15-1,29-3,43-7,11-3,21-6,32-9a342.26,342.26,0,0,0,34-13,356.26,356.26,0,0,0,33.75-15.83"/><path class="cls-1" d="M1576.86,817.64c11.11-7.41,21.86-15.29,32.32-23.53"/><line class="cls-1" x1="1681.61" y1="729.59" x2="1641.92" y2="798.34"/><line class="cls-1" x1="1696.22" y1="785.03" x2="1627.48" y2="745.34"/></svg>